<svg xmlns="http://www.w3.org/2000/svg" width="124.495" height="124.495" viewBox="0 0 124.495 124.495"><path fill="#424448" d="M.001.001h62.247v46.686H.001z"/><path fill="#c80029" d="M.001 77.81h62.247v46.686H.001zM62.248.001h62.248v46.686H62.248z"/><path fill="#424448" d="M62.248 77.81h62.248v46.686H62.248z"/><path d="M0 46.686h124.495V77.81H0z"/><path fill="none" d="M0 0h124.495v124.495H0z"/><g fill="#fff"><path d="M21.83 56.632h2.514v4.893h1.233v-4.893h2.514v-.954h-6.26zM15.334 55.678l-2.692 5.847h1.243l.658-1.466.008-.017h2.83l.008.017.658 1.466h1.256l-2.692-5.847zm1.619 3.41h-1.974l.018-.041.943-2.1.026-.059.027.059.942 2.1zM34.918 61.525h1.19l2.022-5.848h-1.241l-1.352 4.15-.027.085-.028-.085-1.352-4.15h-1.227l-1.352 4.15-.028.085-.027-.085-1.352-4.15h-1.241l2.022 5.848h1.2l1.369-4.014.027-.08.027.08 1.369 4.014zM39.603 60.889a3.677 3.677 0 0 0 4.748 0 2.992 2.992 0 0 0 1.018-2.267 3.173 3.173 0 0 0-.874-2.179 3.675 3.675 0 0 0-5.036 0 3.176 3.176 0 0 0-.872 2.179 2.994 2.994 0 0 0 1.016 2.267zm2.374-4.4a2.185 2.185 0 0 1 2.17 2.138 2.05 2.05 0 0 1-.633 1.475 2.2 2.2 0 0 1-3.074 0 2.057 2.057 0 0 1-.632-1.475 2.185 2.185 0 0 1 2.171-2.143zM87.303 60.549v-4.872h-1.18v5.848h5.068v-.976h-3.888zM74.314 60.571h-3.749v-1.669h3.53v-.954h-3.53v-1.332h3.638v-.954h-4.819v5.864h4.929zM108.134 60.571h-.031v-1.669h3.53v-.954h-3.53v-1.332h3.639v-.954h-4.819v5.864h4.928v-.954zM102.855 60.723h-.019a2.236 2.236 0 0 1-2.249-2.114 2.058 2.058 0 0 1 .6-1.486 2.251 2.251 0 0 1 1.612-.645h.017a2.949 2.949 0 0 1 2.1.879l.572-.9a4.075 4.075 0 0 0-2.681-1.014 3.749 3.749 0 0 0-2.275.823 2.975 2.975 0 0 0-1.153 2.373 3.26 3.26 0 0 0 3.326 3.118 3.782 3.782 0 0 0 2.833-1.063l-.613-.887a2.706 2.706 0 0 1-2.07.916zM80.298 59.616h2.049a3.171 3.171 0 0 0 1.652-.361 2.048 2.048 0 0 0 .023-3.239 3.186 3.186 0 0 0-1.667-.358h-3.319v5.877h1.262zm0-2.975h2.214a1.177 1.177 0 0 1 .723.24.934.934 0 0 1 .345.756 1 1 0 0 1-1.068 1h-2.214zM66.595 57.459l.008-.014h.071v4.081h1.18v-5.848h-1.49l-1.85 3.129-.025.042-.025-.042-1.855-3.129h-1.485v5.848h1.179v-4.081h.071l.008.014 1.781 2.922h.648zM49.276 60.773h-.073a4.238 4.238 0 0 1-2.391-.95l-.445 1.012a5.414 5.414 0 0 0 2.849.924 3.173 3.173 0 0 0 2.315-.748 1.633 1.633 0 0 0 .466-1.211c-.019-.82-.538-1.316-1.636-1.56-.24-.054-.643-.137-1-.209l-.51-.106c-.564-.118-1.114-.269-1.121-.7-.005-.375.408-.764 1.209-.783h.074a3.942 3.942 0 0 1 2.439.912l.481-.944a4.612 4.612 0 0 0-2.836-.968 3.063 3.063 0 0 0-2.111.8 1.541 1.541 0 0 0-.461 1.149c.032 1.245 1.439 1.583 3 1.846h.007c.613.1 1.246.209 1.268.7a.563.563 0 0 1-.175.423 1.917 1.917 0 0 1-1.349.413zM94.964 55.678l-2.692 5.847h1.243l.658-1.466.008-.017h2.831l.007.017.658 1.466h1.26l-2.692-5.847zm1.619 3.41h-1.974l.019-.041.942-2.1.026-.059.027.059.942 2.1zM58.957 56.443a3.675 3.675 0 0 0-5.036 0 3.175 3.175 0 0 0-.872 2.179 2.994 2.994 0 0 0 1.016 2.267 3.677 3.677 0 0 0 4.748 0 2.992 2.992 0 0 0 1.018-2.267 3.173 3.173 0 0 0-.874-2.179zm-.981 3.654a2.2 2.2 0 0 1-3.074 0 2.057 2.057 0 0 1-.632-1.475 2.17 2.17 0 0 1 4.339 0 2.05 2.05 0 0 1-.633 1.475zM36.469 65.241a1.908 1.908 0 1 0 0 3.815 1.819 1.819 0 0 0 1.52-.745l.024-.036-.539-.394-.009-.006-.026.038a1.147 1.147 0 0 1-.97.5 1.261 1.261 0 0 1 0-2.522 1.159 1.159 0 0 1 .972.5l.026.036.553-.366.008-.006-.022-.037a1.777 1.777 0 0 0-1.537-.777zM40.561 65.241a1.908 1.908 0 1 0 1.938 1.908 1.859 1.859 0 0 0-1.938-1.908zm0 3.169a1.261 1.261 0 1 1 1.236-1.261 1.195 1.195 0 0 1-1.236 1.261zM43.382 68.99h.674v-1.534h1.877v-.64h-1.877v-.87h2v-.639h-2.67zM46.934 68.99h.674v-1.534h1.877v-.64h-1.877v-.87h2v-.639h-2.67zM51.161 67.453h1.891v-.637h-1.891v-.877h2.019v-.634h-2.693v3.682h2.786v-.634h-2.112zM54.868 67.453h1.89v-.637h-1.89v-.877h2.019v-.634h-2.693v3.682h2.786v-.634h-2.111zM61.809 68.068c.022-.033.047-.07.069-.107l.476-.74.006-.009-.507-.315h-.009l-.492.758-.591-.563a1.291 1.291 0 0 0 .66-.957.92.92 0 0 0-1.04-.886.949.949 0 0 0-1.044.9 1.229 1.229 0 0 0 .465.909 1.325 1.325 0 0 0-.62 1.005c0 .621.424.992 1.135.992a1.463 1.463 0 0 0 1.094-.472l.426.405h.911l-.95-.909zm-1.428-2.226c.237 0 .373.114.373.314 0 .184-.2.357-.425.518-.258-.251-.318-.344-.318-.492a.324.324 0 0 1 .37-.34zm-.031 2.616c-.295 0-.494-.166-.494-.414a.836.836 0 0 1 .381-.574l.734.7a.779.779 0 0 1-.621.288zM65.916 65.308h-1.481v3.682h1.481a1.843 1.843 0 1 0 0-3.682zm0 3.043h-.807v-2.4h.807a1.2 1.2 0 1 1 0 2.4zM69.395 67.453h1.89v-.637h-1.89v-.877h2.019v-.634h-2.693v3.682h2.782v-.634h-2.112zM74.021 66.845l-.25-.033c-.512-.073-.712-.2-.712-.436 0-.3.3-.491.768-.491a1.832 1.832 0 0 1 .99.3l.039.025.339-.537.005-.008-.037-.025a2.333 2.333 0 0 0-1.331-.4c-.88 0-1.471.469-1.471 1.167 0 .73.6.967 1.111 1.037l.281.039c.543.073.775.2.775.44 0 .286-.329.486-.8.486a1.8 1.8 0 0 1-1.1-.384l-.038-.035-.365.531-.005.007.03.027a2.406 2.406 0 0 0 1.483.493c1.032 0 1.494-.591 1.494-1.177s-.407-.918-1.206-1.026zM77.703 66.845l-.25-.033c-.512-.073-.712-.2-.712-.436 0-.3.3-.491.768-.491a1.832 1.832 0 0 1 .99.3l.039.025.339-.537.006-.008-.038-.025a2.333 2.333 0 0 0-1.331-.4c-.88 0-1.471.469-1.471 1.167 0 .73.605.967 1.111 1.037l.282.039c.542.073.774.2.774.44 0 .286-.329.486-.8.486a1.8 1.8 0 0 1-1.1-.384l-.039-.035-.364.531-.005.007.03.027a2.406 2.406 0 0 0 1.483.493c1.032 0 1.494-.591 1.494-1.177s-.406-.918-1.206-1.026zM80.461 67.453h1.89v-.637h-1.89v-.877h2.019v-.634h-2.693v3.682h2.785v-.634H80.46zM86.352 66.392c0-.7-.47-1.084-1.325-1.084h-1.533v3.682h.674v-1.511h.552l.955 1.506v.005h.775l-1.021-1.552a1.059 1.059 0 0 0 .923-1.046zm-2.184.471v-.921h.843c.44 0 .644.143.644.45s-.2.471-.644.471zM86.951 65.947h1.17v3.043h.674v-3.043h1.17v-.639h-3.013z"/></g></svg>